<mxfile host="app.diagrams.net" modified="2022-12-15T06:56:52.387Z" agent="5.0 (Windows NT 10.0; Win64; x64) AppleWebKit/537.36 (KHTML, like Gecko) Chrome/108.0.0.0 Safari/537.36" etag="vzOURAn802k6MT-cCQUP" version="20.7.2" type="github">
  <diagram name="Page-1" id="efa7a0a1-bf9b-a30e-e6df-94a7791c09e9">
    <mxGraphModel dx="1434" dy="841" grid="1" gridSize="10" guides="1" tooltips="1" connect="1" arrows="1" fold="1" page="1" pageScale="1" pageWidth="826" pageHeight="1169" background="none" math="0" shadow="0">
      <root>
        <mxCell id="0" />
        <mxCell id="1" parent="0" />
        <mxCell id="ZY3VWpZElkT1bxe5TLRr-123" value="" style="edgeStyle=orthogonalEdgeStyle;rounded=0;orthogonalLoop=1;jettySize=auto;html=1;" edge="1" parent="1" source="ZY3VWpZElkT1bxe5TLRr-121" target="ZY3VWpZElkT1bxe5TLRr-122">
          <mxGeometry relative="1" as="geometry" />
        </mxCell>
        <mxCell id="ZY3VWpZElkT1bxe5TLRr-121" value="CDS" style="rounded=0;whiteSpace=wrap;html=1;" vertex="1" parent="1">
          <mxGeometry x="50" y="170" width="650" height="170" as="geometry" />
        </mxCell>
        <mxCell id="ZY3VWpZElkT1bxe5TLRr-114" value="cds-sks" style="rounded=0;whiteSpace=wrap;html=1;" vertex="1" parent="1">
          <mxGeometry x="520" y="230" width="120" height="60" as="geometry" />
        </mxCell>
        <mxCell id="ZY3VWpZElkT1bxe5TLRr-115" value="cds-s" style="rounded=0;whiteSpace=wrap;html=1;" vertex="1" parent="1">
          <mxGeometry x="60" y="230" width="120" height="60" as="geometry" />
        </mxCell>
        <mxCell id="ZY3VWpZElkT1bxe5TLRr-116" value="cds-m" style="rounded=0;whiteSpace=wrap;html=1;" vertex="1" parent="1">
          <mxGeometry x="240" y="230" width="120" height="60" as="geometry" />
        </mxCell>
        <mxCell id="ZY3VWpZElkT1bxe5TLRr-117" value="CA/RA" style="rounded=0;whiteSpace=wrap;html=1;" vertex="1" parent="1">
          <mxGeometry x="240" y="70" width="120" height="60" as="geometry" />
        </mxCell>
        <mxCell id="ZY3VWpZElkT1bxe5TLRr-118" value="调用" style="endArrow=classic;html=1;rounded=0;exitX=1;exitY=0.5;exitDx=0;exitDy=0;entryX=0;entryY=0.5;entryDx=0;entryDy=0;" edge="1" parent="1" source="ZY3VWpZElkT1bxe5TLRr-115" target="ZY3VWpZElkT1bxe5TLRr-116">
          <mxGeometry width="50" height="50" relative="1" as="geometry">
            <mxPoint x="430" y="360" as="sourcePoint" />
            <mxPoint x="480" y="310" as="targetPoint" />
          </mxGeometry>
        </mxCell>
        <mxCell id="ZY3VWpZElkT1bxe5TLRr-119" value="配置调用" style="endArrow=classic;startArrow=classic;html=1;rounded=0;entryX=0.5;entryY=1;entryDx=0;entryDy=0;" edge="1" parent="1" source="ZY3VWpZElkT1bxe5TLRr-116" target="ZY3VWpZElkT1bxe5TLRr-117">
          <mxGeometry width="50" height="50" relative="1" as="geometry">
            <mxPoint x="430" y="360" as="sourcePoint" />
            <mxPoint x="480" y="310" as="targetPoint" />
          </mxGeometry>
        </mxCell>
        <mxCell id="ZY3VWpZElkT1bxe5TLRr-120" value="调用" style="endArrow=classic;startArrow=classic;html=1;rounded=0;entryX=0;entryY=0.5;entryDx=0;entryDy=0;exitX=1;exitY=0.5;exitDx=0;exitDy=0;" edge="1" parent="1" source="ZY3VWpZElkT1bxe5TLRr-116" target="ZY3VWpZElkT1bxe5TLRr-114">
          <mxGeometry width="50" height="50" relative="1" as="geometry">
            <mxPoint x="430" y="360" as="sourcePoint" />
            <mxPoint x="480" y="310" as="targetPoint" />
          </mxGeometry>
        </mxCell>
        <mxCell id="ZY3VWpZElkT1bxe5TLRr-122" value="" style="whiteSpace=wrap;html=1;rounded=0;" vertex="1" parent="1">
          <mxGeometry x="770" y="225" width="120" height="60" as="geometry" />
        </mxCell>
      </root>
    </mxGraphModel>
  </diagram>
</mxfile>
